# xmcd
#
# Track frame offsets:
#	150
#	20727
#	35287
#	54782
#	69485
#	85610
#	98867
#	111105
#	119072
#	131402
#	144777
#	161632
#	174517
#	188847
#
# Disc length: 2760 seconds
#
# Revision: 1
# Processed by: cddbd v1.5.1PL0 Copyright (c) Steve Scherf et al.
# Submitted via: audiograbber 1.83.01
#
DISCID=b30ac60e
DTITLE=Renato Teixeira - Aplauso
DYEAR=1900
DGENRE=
TTITLE0=Sentimental eu fico
TTITLE1=Frete
TTITLE2=Irmãos da Lua
TTITLE3=Leve Guarânia
TTITLE4=Sina de Violeiro
TTITLE5=Garapa
TTITLE6=Rural
TTITLE7=Viva (No Meu Quintal)
TTITLE8=Uva e Vinho, Trigo e Pão
TTITLE9=Invernada
TTITLE10=Eu e Ney sentados na Ponte
TTITLE11=Agulha no Palheiro
TTITLE12=Antonia (Todas as Crianças do Mundo)
TTITLE13=Romaria
EXTD=
EXTT0=
EXTT1=
EXTT2=
EXTT3=
EXTT4=
EXTT5=
EXTT6=
EXTT7=
EXTT8=
EXTT9=
EXTT10=
EXTT11=
EXTT12=
EXTT13=
PLAYORDER=
